<svg version="1" xmlns="http://www.w3.org/2000/svg" width="533.333" height="533.333" viewBox="0 0 400.000000 400.000000"><path d="M0 200v200h400V0H0v200zM328.9 52.9c12.3 3.6 17.9 6.9 26.1 15.1 8.8 8.8 13.4 17.4 17.7 32.7l2.8 9.8v143l-2.7 10c-6.4 23.8-16.8 38.1-33.2 45.9-18.2 8.7-45.5 9.9-66.8 3-23.8-7.8-37.6-27.3-42.3-59.9-2.2-14.9-2.1-126.2 0-140.6 4.7-31.1 19.2-50.9 42.7-58 10.8-3.3 15.5-3.8 32.3-3.4 12.6.2 17.6.8 23.4 2.4zM82.4 58.7c2.6 11.5 13 59.2 25.7 117.8 10.4 48.2 13.7 62 14.2 60.5.3-.8 2.4-9.8 4.6-20 7.6-35 31.4-143.4 34.7-158.3l1.6-6.7H206v12.2c0 6.8.5 33.9 1 60.3s1.4 76.6 2 111.5c.5 34.9 1.2 66.8 1.4 70.7l.4 7.3h-37.5l-.6-16.8c-.4-9.2-1-42.5-1.3-74-.4-31.4-.9-57-1.1-56.8-.3.2-2.2 7.8-4.3 16.8-2.1 9-5.9 25.3-8.4 36.3-2.6 11-5.8 24.7-7.1 30.5-1.4 5.8-4.7 20.2-7.5 32s-5.6 23.9-6.2 26.7l-1.1 5.3h-13.8c-13.6 0-13.9-.1-14.4-2.3-.3-1.2-1.6-6.9-2.9-12.7-1.3-5.8-7.4-32.3-13.6-59-6.2-26.7-12.5-54-14-60.8-1.6-6.8-3-12.5-3.2-12.8-.3-.2-.8 24.9-1.2 55.8-.3 31-.9 64.3-1.3 74l-.6 17.8h-38l.7-21.8c.4-11.9 1.1-47.3 1.7-78.7.5-31.4 1.4-79.3 1.9-106.5.5-27.2 1-50.7 1-52.3V52h42.8l1.6 6.7zM387 332.5v7.5H19v-15h368v7.5z"/><path d="M287.3 89.4c-3.8 1.8-5.7 3.5-7.6 6.8-5.2 9.2-5.2 8.8-5.2 87.3v73l2.3 6.5c3.1 8.6 5.3 11.3 10.9 14 4 1.9 6.6 2.3 14.8 2.4 8.9.1 10.6-.2 15-2.5 5.8-2.9 8.8-7 11.3-14.8 1.5-5.1 1.7-12.3 1.7-79.1s-.2-74-1.7-79.1c-4.1-13-9-16.3-25.3-16.7-9.9-.2-11.5 0-16.2 2.2z"/></svg>